<svg id="visual" viewBox="0 0 1920 300" width="1920" height="300" xmlns="http://www.w3.org/2000/svg" xmlns:xlink="http://www.w3.org/1999/xlink" version="1.1"><rect x="0" y="0" width="1920" height="300" fill="#101935"></rect><path d="M0 192L13.8 194.7C27.7 197.3 55.3 202.7 83.2 207.3C111 212 139 216 166.8 216C194.7 216 222.3 212 250.2 207C278 202 306 196 333.8 192.7C361.7 189.3 389.3 188.7 417.2 187.5C445 186.3 473 184.7 500.8 187.5C528.7 190.3 556.3 197.7 584.2 203.3C612 209 640 213 667.8 213C695.7 213 723.3 209 751.2 204.7C779 200.3 807 195.7 834.8 191.7C862.7 187.7 890.3 184.3 918.2 186.3C946 188.3 974 195.7 1001.8 195.7C1029.7 195.7 1057.3 188.3 1085.2 191C1113 193.7 1141 206.3 1168.8 208.3C1196.7 210.3 1224.3 201.7 1252.2 198.3C1280 195 1308 197 1335.8 200.8C1363.7 204.7 1391.3 210.3 1419.2 211.7C1447 213 1475 210 1502.8 207.7C1530.7 205.3 1558.3 203.7 1586.2 202.7C1614 201.7 1642 201.3 1669.8 201.3C1697.7 201.3 1725.3 201.7 1753.2 201.3C1781 201 1809 200 1836.8 202.3C1864.7 204.7 1892.3 210.3 1906.2 213.2L1920 216L1920 0L1906.2 0C1892.3 0 1864.7 0 1836.8 0C1809 0 1781 0 1753.2 0C1725.3 0 1697.7 0 1669.8 0C1642 0 1614 0 1586.2 0C1558.3 0 1530.7 0 1502.8 0C1475 0 1447 0 1419.2 0C1391.3 0 1363.7 0 1335.8 0C1308 0 1280 0 1252.2 0C1224.3 0 1196.7 0 1168.8 0C1141 0 1113 0 1085.2 0C1057.3 0 1029.7 0 1001.8 0C974 0 946 0 918.2 0C890.3 0 862.7 0 834.8 0C807 0 779 0 751.2 0C723.3 0 695.7 0 667.8 0C640 0 612 0 584.2 0C556.3 0 528.7 0 500.8 0C473 0 445 0 417.2 0C389.3 0 361.7 0 333.8 0C306 0 278 0 250.2 0C222.3 0 194.7 0 166.8 0C139 0 111 0 83.2 0C55.3 0 27.7 0 13.8 0L0 0Z" fill="#393c60"></path><path d="M0 133L13.8 129.8C27.7 126.7 55.3 120.3 83.2 123.5C111 126.7 139 139.3 166.8 140.3C194.7 141.3 222.3 130.7 250.2 125C278 119.3 306 118.7 333.8 118.2C361.7 117.7 389.3 117.3 417.2 120.2C445 123 473 129 500.8 133.8C528.7 138.7 556.3 142.3 584.2 141.7C612 141 640 136 667.8 134.7C695.7 133.3 723.3 135.7 751.2 136C779 136.3 807 134.7 834.8 135.2C862.7 135.7 890.3 138.3 918.2 140.2C946 142 974 143 1001.8 139C1029.7 135 1057.3 126 1085.2 121.8C1113 117.7 1141 118.3 1168.8 119.2C1196.7 120 1224.3 121 1252.2 122.7C1280 124.3 1308 126.7 1335.8 127.3C1363.7 128 1391.3 127 1419.2 131.2C1447 135.3 1475 144.7 1502.8 149C1530.7 153.3 1558.3 152.7 1586.2 152C1614 151.3 1642 150.7 1669.8 144.3C1697.7 138 1725.3 126 1753.2 120C1781 114 1809 114 1836.8 117.7C1864.7 121.3 1892.3 128.7 1906.2 132.3L1920 136L1920 0L1906.2 0C1892.3 0 1864.7 0 1836.8 0C1809 0 1781 0 1753.2 0C1725.3 0 1697.7 0 1669.8 0C1642 0 1614 0 1586.2 0C1558.3 0 1530.7 0 1502.8 0C1475 0 1447 0 1419.2 0C1391.3 0 1363.7 0 1335.8 0C1308 0 1280 0 1252.2 0C1224.3 0 1196.7 0 1168.8 0C1141 0 1113 0 1085.2 0C1057.3 0 1029.7 0 1001.8 0C974 0 946 0 918.2 0C890.3 0 862.7 0 834.8 0C807 0 779 0 751.2 0C723.3 0 695.7 0 667.8 0C640 0 612 0 584.2 0C556.3 0 528.7 0 500.8 0C473 0 445 0 417.2 0C389.3 0 361.7 0 333.8 0C306 0 278 0 250.2 0C222.3 0 194.7 0 166.8 0C139 0 111 0 83.2 0C55.3 0 27.7 0 13.8 0L0 0Z" fill="#5787a2"></path><path d="M0 50L13.8 50.5C27.7 51 55.3 52 83.2 54.7C111 57.3 139 61.7 166.8 60.8C194.7 60 222.3 54 250.2 51C278 48 306 48 333.8 53C361.7 58 389.3 68 417.2 71.7C445 75.3 473 72.7 500.8 72.3C528.7 72 556.3 74 584.2 73.2C612 72.3 640 68.7 667.8 63.8C695.7 59 723.3 53 751.2 55C779 57 807 67 834.8 70.2C862.7 73.3 890.3 69.7 918.2 68.3C946 67 974 68 1001.8 69.3C1029.7 70.7 1057.3 72.3 1085.2 74.8C1113 77.3 1141 80.7 1168.8 80.8C1196.7 81 1224.3 78 1252.2 76.8C1280 75.7 1308 76.3 1335.8 72.3C1363.7 68.3 1391.3 59.7 1419.2 59.3C1447 59 1475 67 1502.8 70.7C1530.7 74.3 1558.3 73.7 1586.2 69.8C1614 66 1642 59 1669.8 59C1697.7 59 1725.3 66 1753.2 71.5C1781 77 1809 81 1836.8 82.2C1864.7 83.3 1892.3 81.7 1906.2 80.8L1920 80L1920 0L1906.2 0C1892.3 0 1864.7 0 1836.8 0C1809 0 1781 0 1753.2 0C1725.3 0 1697.7 0 1669.8 0C1642 0 1614 0 1586.2 0C1558.3 0 1530.7 0 1502.8 0C1475 0 1447 0 1419.2 0C1391.3 0 1363.7 0 1335.8 0C1308 0 1280 0 1252.2 0C1224.3 0 1196.7 0 1168.8 0C1141 0 1113 0 1085.2 0C1057.3 0 1029.7 0 1001.8 0C974 0 946 0 918.2 0C890.3 0 862.7 0 834.8 0C807 0 779 0 751.2 0C723.3 0 695.7 0 667.8 0C640 0 612 0 584.2 0C556.3 0 528.7 0 500.8 0C473 0 445 0 417.2 0C389.3 0 361.7 0 333.8 0C306 0 278 0 250.2 0C222.3 0 194.7 0 166.8 0C139 0 111 0 83.2 0C55.3 0 27.7 0 13.8 0L0 0Z" fill="#9ad4d6"></path></svg>