<svg id="visual" viewBox="0 0 1920 300" width="1920" height="300" xmlns="http://www.w3.org/2000/svg" xmlns:xlink="http://www.w3.org/1999/xlink" version="1.1"><rect x="0" y="0" width="1920" height="300" fill="#101935"></rect><path d="M0 114L13.8 108.5C27.7 103 55.3 92 83.2 89.5C111 87 139 93 166.8 98.5C194.7 104 222.3 109 250.2 112C278 115 306 116 333.8 114.5C361.7 113 389.3 109 417.2 109.7C445 110.3 473 115.7 500.8 114.7C528.7 113.7 556.3 106.3 584.2 103.5C612 100.7 640 102.3 667.8 103.2C695.7 104 723.3 104 751.2 102.2C779 100.3 807 96.7 834.8 95.2C862.7 93.7 890.3 94.3 918.2 96.3C946 98.3 974 101.7 1001.8 105.7C1029.7 109.7 1057.3 114.3 1085.2 114.3C1113 114.3 1141 109.7 1168.8 106.8C1196.7 104 1224.3 103 1252.2 105.8C1280 108.7 1308 115.3 1335.8 117.8C1363.7 120.3 1391.3 118.7 1419.2 111.8C1447 105 1475 93 1502.8 86.7C1530.7 80.3 1558.3 79.7 1586.2 79.7C1614 79.7 1642 80.3 1669.8 87.5C1697.7 94.7 1725.3 108.3 1753.2 115.2C1781 122 1809 122 1836.8 118.7C1864.7 115.3 1892.3 108.7 1906.2 105.3L1920 102L1920 301L1906.2 301C1892.3 301 1864.7 301 1836.8 301C1809 301 1781 301 1753.2 301C1725.3 301 1697.7 301 1669.8 301C1642 301 1614 301 1586.2 301C1558.3 301 1530.7 301 1502.8 301C1475 301 1447 301 1419.2 301C1391.3 301 1363.7 301 1335.8 301C1308 301 1280 301 1252.2 301C1224.3 301 1196.7 301 1168.8 301C1141 301 1113 301 1085.2 301C1057.3 301 1029.7 301 1001.8 301C974 301 946 301 918.2 301C890.3 301 862.7 301 834.8 301C807 301 779 301 751.2 301C723.3 301 695.7 301 667.8 301C640 301 612 301 584.2 301C556.3 301 528.7 301 500.8 301C473 301 445 301 417.2 301C389.3 301 361.7 301 333.8 301C306 301 278 301 250.2 301C222.3 301 194.7 301 166.8 301C139 301 111 301 83.2 301C55.3 301 27.7 301 13.8 301L0 301Z" fill="#393c60"></path><path d="M0 165L13.8 163.5C27.7 162 55.3 159 83.2 158.8C111 158.7 139 161.3 166.8 166.3C194.7 171.3 222.3 178.7 250.2 178.3C278 178 306 170 333.8 167.5C361.7 165 389.3 168 417.2 165.8C445 163.7 473 156.3 500.8 156.7C528.7 157 556.3 165 584.2 171.2C612 177.3 640 181.7 667.8 179.8C695.7 178 723.3 170 751.2 162.7C779 155.3 807 148.7 834.8 150.7C862.7 152.7 890.3 163.3 918.2 163.8C946 164.3 974 154.7 1001.8 152C1029.7 149.3 1057.3 153.7 1085.2 156.5C1113 159.3 1141 160.7 1168.8 160.2C1196.7 159.7 1224.3 157.3 1252.2 157.8C1280 158.3 1308 161.7 1335.8 159.2C1363.7 156.7 1391.3 148.3 1419.2 144.8C1447 141.3 1475 142.7 1502.8 147C1530.7 151.3 1558.3 158.7 1586.2 158.8C1614 159 1642 152 1669.8 148C1697.7 144 1725.3 143 1753.2 150.5C1781 158 1809 174 1836.8 175C1864.7 176 1892.3 162 1906.2 155L1920 148L1920 301L1906.2 301C1892.3 301 1864.7 301 1836.8 301C1809 301 1781 301 1753.2 301C1725.3 301 1697.7 301 1669.8 301C1642 301 1614 301 1586.2 301C1558.3 301 1530.7 301 1502.8 301C1475 301 1447 301 1419.2 301C1391.3 301 1363.7 301 1335.8 301C1308 301 1280 301 1252.2 301C1224.3 301 1196.7 301 1168.8 301C1141 301 1113 301 1085.2 301C1057.3 301 1029.7 301 1001.8 301C974 301 946 301 918.2 301C890.3 301 862.7 301 834.8 301C807 301 779 301 751.2 301C723.3 301 695.7 301 667.8 301C640 301 612 301 584.2 301C556.3 301 528.7 301 500.8 301C473 301 445 301 417.2 301C389.3 301 361.7 301 333.8 301C306 301 278 301 250.2 301C222.3 301 194.7 301 166.8 301C139 301 111 301 83.2 301C55.3 301 27.7 301 13.8 301L0 301Z" fill="#5787a2"></path><path d="M0 227L13.8 226.5C27.7 226 55.3 225 83.2 221.5C111 218 139 212 166.8 215.5C194.7 219 222.3 232 250.2 233C278 234 306 223 333.8 221.5C361.7 220 389.3 228 417.2 228.8C445 229.7 473 223.3 500.8 225.3C528.7 227.3 556.3 237.7 584.2 241C612 244.3 640 240.7 667.8 234C695.7 227.3 723.3 217.7 751.2 218.3C779 219 807 230 834.8 230.8C862.7 231.7 890.3 222.3 918.2 221.5C946 220.7 974 228.3 1001.8 234C1029.7 239.7 1057.3 243.3 1085.2 240.7C1113 238 1141 229 1168.8 226.7C1196.7 224.3 1224.3 228.7 1252.2 229.8C1280 231 1308 229 1335.8 227.3C1363.7 225.7 1391.3 224.3 1419.2 221.8C1447 219.3 1475 215.7 1502.8 217.3C1530.7 219 1558.3 226 1586.2 225C1614 224 1642 215 1669.8 212.2C1697.7 209.3 1725.3 212.7 1753.2 220.2C1781 227.7 1809 239.3 1836.8 238C1864.7 236.7 1892.3 222.3 1906.2 215.2L1920 208L1920 301L1906.2 301C1892.3 301 1864.7 301 1836.8 301C1809 301 1781 301 1753.2 301C1725.3 301 1697.7 301 1669.8 301C1642 301 1614 301 1586.2 301C1558.3 301 1530.7 301 1502.8 301C1475 301 1447 301 1419.2 301C1391.3 301 1363.7 301 1335.8 301C1308 301 1280 301 1252.2 301C1224.3 301 1196.7 301 1168.8 301C1141 301 1113 301 1085.2 301C1057.3 301 1029.7 301 1001.8 301C974 301 946 301 918.2 301C890.3 301 862.7 301 834.8 301C807 301 779 301 751.2 301C723.3 301 695.7 301 667.8 301C640 301 612 301 584.2 301C556.3 301 528.7 301 500.8 301C473 301 445 301 417.2 301C389.3 301 361.7 301 333.8 301C306 301 278 301 250.2 301C222.3 301 194.7 301 166.8 301C139 301 111 301 83.2 301C55.3 301 27.7 301 13.8 301L0 301Z" fill="#9ad4d6"></path></svg>